<mxfile host="app.diagrams.net" modified="2022-12-14T07:12:14.225Z" agent="5.0 (Windows NT 10.0; Win64; x64) AppleWebKit/537.36 (KHTML, like Gecko) Chrome/108.0.0.0 Safari/537.36" version="20.6.2" etag="Qw7EbHaE4A_-lALmGjrA" type="github">
  <diagram id="yXJzWfTtoKrT_K_Kohnl" name="Page-1">
    <mxGraphModel dx="1018" dy="1088" grid="1" gridSize="10" guides="1" tooltips="1" connect="1" arrows="1" fold="1" page="1" pageScale="1" pageWidth="1169" pageHeight="827" math="0" shadow="0">
      <root>
        <mxCell id="0" />
        <mxCell id="1" parent="0" />
        <mxCell id="hakwh56bfqvSgnkMD6rX-1" value="" style="sketch=0;points=[[0,0,0],[0.25,0,0],[0.5,0,0],[0.75,0,0],[1,0,0],[0,1,0],[0.25,1,0],[0.5,1,0],[0.75,1,0],[1,1,0],[0,0.25,0],[0,0.5,0],[0,0.75,0],[1,0.25,0],[1,0.5,0],[1,0.75,0]];outlineConnect=0;fontColor=#232F3E;gradientColor=#4AB29A;gradientDirection=north;fillColor=#116D5B;strokeColor=#ffffff;dashed=0;verticalLabelPosition=bottom;verticalAlign=top;align=center;html=1;fontSize=12;fontStyle=0;aspect=fixed;shape=mxgraph.aws4.resourceIcon;resIcon=mxgraph.aws4.machine_learning;" vertex="1" parent="1">
          <mxGeometry x="920" y="180" width="78" height="78" as="geometry" />
        </mxCell>
        <mxCell id="hakwh56bfqvSgnkMD6rX-2" value="" style="sketch=0;points=[[0,0,0],[0.25,0,0],[0.5,0,0],[0.75,0,0],[1,0,0],[0,1,0],[0.25,1,0],[0.5,1,0],[0.75,1,0],[1,1,0],[0,0.25,0],[0,0.5,0],[0,0.75,0],[1,0.25,0],[1,0.5,0],[1,0.75,0]];outlineConnect=0;fontColor=#232F3E;gradientColor=#4AB29A;gradientDirection=north;fillColor=#116D5B;strokeColor=#ffffff;dashed=0;verticalLabelPosition=bottom;verticalAlign=top;align=center;html=1;fontSize=12;fontStyle=0;aspect=fixed;shape=mxgraph.aws4.resourceIcon;resIcon=mxgraph.aws4.augmented_ai;" vertex="1" parent="1">
          <mxGeometry x="940" y="293.25" width="78" height="78" as="geometry" />
        </mxCell>
        <mxCell id="hakwh56bfqvSgnkMD6rX-3" value="" style="outlineConnect=0;dashed=0;verticalLabelPosition=bottom;verticalAlign=top;align=center;html=1;shape=mxgraph.aws3.machine_learning;fillColor=#2E73B8;gradientColor=none;" vertex="1" parent="1">
          <mxGeometry x="770" y="20" width="76.5" height="93" as="geometry" />
        </mxCell>
        <mxCell id="hakwh56bfqvSgnkMD6rX-4" value="" style="image;html=1;image=img/lib/clip_art/computers/Virtual_Machine_128x128.png" vertex="1" parent="1">
          <mxGeometry x="880" y="80" width="80" height="80" as="geometry" />
        </mxCell>
        <mxCell id="hakwh56bfqvSgnkMD6rX-5" value="" style="sketch=0;pointerEvents=1;shadow=0;dashed=0;html=1;strokeColor=none;fillColor=#434445;aspect=fixed;labelPosition=center;verticalLabelPosition=bottom;verticalAlign=top;align=center;outlineConnect=0;shape=mxgraph.vvd.guest_agent_customization;" vertex="1" parent="1">
          <mxGeometry x="130" y="126" width="50" height="46" as="geometry" />
        </mxCell>
        <mxCell id="hakwh56bfqvSgnkMD6rX-6" value="" style="sketch=0;pointerEvents=1;shadow=0;dashed=0;html=1;strokeColor=none;fillColor=#434445;aspect=fixed;labelPosition=center;verticalLabelPosition=bottom;verticalAlign=top;align=center;outlineConnect=0;shape=mxgraph.vvd.edge_gateway;" vertex="1" parent="1">
          <mxGeometry x="948" y="680" width="62" height="52.7" as="geometry" />
        </mxCell>
        <mxCell id="hakwh56bfqvSgnkMD6rX-7" value="" style="sketch=0;pointerEvents=1;shadow=0;dashed=0;html=1;strokeColor=none;fillColor=#434445;aspect=fixed;labelPosition=center;verticalLabelPosition=bottom;verticalAlign=top;align=center;outlineConnect=0;shape=mxgraph.vvd.monitor;" vertex="1" parent="1">
          <mxGeometry x="954" y="410" width="50" height="46.5" as="geometry" />
        </mxCell>
        <mxCell id="hakwh56bfqvSgnkMD6rX-8" value="" style="sketch=0;pointerEvents=1;shadow=0;dashed=0;html=1;strokeColor=none;fillColor=#434445;aspect=fixed;labelPosition=center;verticalLabelPosition=bottom;verticalAlign=top;align=center;outlineConnect=0;shape=mxgraph.vvd.storage;" vertex="1" parent="1">
          <mxGeometry x="980.5" y="482.5" width="37.5" height="50" as="geometry" />
        </mxCell>
        <mxCell id="hakwh56bfqvSgnkMD6rX-9" value="" style="sketch=0;pointerEvents=1;shadow=0;dashed=0;html=1;strokeColor=none;fillColor=#434445;aspect=fixed;labelPosition=center;verticalLabelPosition=bottom;verticalAlign=top;align=center;outlineConnect=0;shape=mxgraph.vvd.site;" vertex="1" parent="1">
          <mxGeometry x="650" y="36" width="50" height="44" as="geometry" />
        </mxCell>
        <mxCell id="hakwh56bfqvSgnkMD6rX-10" value="" style="sketch=0;pointerEvents=1;shadow=0;dashed=0;html=1;strokeColor=none;fillColor=#434445;aspect=fixed;labelPosition=center;verticalLabelPosition=bottom;verticalAlign=top;align=center;outlineConnect=0;shape=mxgraph.vvd.datastore;" vertex="1" parent="1">
          <mxGeometry x="968" y="580" width="50" height="39" as="geometry" />
        </mxCell>
        <mxCell id="hakwh56bfqvSgnkMD6rX-11" value="" style="shape=image;html=1;verticalAlign=top;verticalLabelPosition=bottom;labelBackgroundColor=#ffffff;imageAspect=0;aspect=fixed;image=https://cdn1.iconfinder.com/data/icons/competitive-strategy-and-corporate-training/512/589_Engine_industry_machine_motor_performance_game_gaming_genres_programing-128.png" vertex="1" parent="1">
          <mxGeometry x="40" y="286" width="128" height="128" as="geometry" />
        </mxCell>
      </root>
    </mxGraphModel>
  </diagram>
</mxfile>
